/* XPM */
static char *cpay64[] = {
/* columns rows colors chars-per-pixel */
"64 64 94 2 ",
"   c #7B487F",
".  c #BE2D5C",
"X  c #B8305F",
"o  c #9E3A6D",
"O  c #AE3465",
"+  c #A3386B",
"@  c #B63060",
"#  c #DD204B",
"$  c #CE2753",
"%  c #C72957",
"&  c #C92956",
"*  c #C32B59",
"=  c #D32450",
"-  c #8D4176",
";  c #83457B",
":  c #8A4378",
">  c #166FB4",
",  c #1A6EB2",
"<  c #0C77BD",
"1  c #0678BF",
"2  c #0978BE",
"3  c #1773B7",
"4  c #1A72B6",
"5  c #266DAF",
"6  c #3566A6",
"7  c #3367A8",
"8  c #3069AA",
"9  c #226EB1",
"0  c #5F548F",
"q  c #445E9D",
"w  c #4E5A98",
"e  c #565995",
"r  c #734C84",
"t  c #62538E",
"y  c #42619F",
"u  c #4161A0",
"i  c #0077C1",
"p  c #007CC3",
"a  c #087FC5",
"s  c #0780C5",
"d  c #0C82C6",
"f  c #1185C7",
"g  c #1587C8",
"h  c #1887C8",
"j  c #1588C9",
"k  c #1B8AC9",
"l  c #228DCB",
"z  c #2790CC",
"x  c #2C93CD",
"c  c #3396CF",
"v  c #3697D0",
"b  c #3798D0",
"n  c #3B9AD1",
"m  c #429ED3",
"M  c #46A0D3",
"N  c #4BA2D5",
"B  c #52A6D6",
"V  c #56A8D7",
"C  c #58A9D7",
"Z  c #57A9D8",
"A  c #5BABD8",
"S  c #62AEDA",
"D  c #66B1DB",
"F  c #6BB3DC",
"G  c #72B6DE",
"H  c #75B8DE",
"J  c #79BADF",
"K  c #7CBCE0",
"L  c #81BEE1",
"P  c #86C1E2",
"I  c #8BC4E4",
"U  c #91C6E5",
"Y  c #95C9E6",
"T  c #99CBE7",
"R  c #9DCDE8",
"E  c #A2CFE9",
"W  c #A5D1EA",
"Q  c #ACD4EB",
"!  c #B1D7ED",
"~  c #B5D9EE",
"^  c #BADCEF",
"/  c #BEDDF0",
"(  c #C1DFF0",
")  c #C4E1F1",
"_  c #CBE4F3",
"`  c #D1E7F4",
"'  c #D5E9F5",
"]  c #DDEEF7",
"[  c #E0EFF8",
"{  c #E4F1F9",
"}  c #EDF6FB",
"|  c #F0F7FB",
" . c #F2F8FC",
".. c None",
/* pixels */
"..............s p p p p p p p p p p p p p p p p s p p p p p p p p p p p p p p p p p p p p p p p p p p p p p p s p ..............",
"..........p p p p p p p p p p p p p p p p p p p p p p p p p p p p s p p p p s p p p p p s p p p p p p p p p p p p p p ..........",
"........p p p p p s p p p p p p p p p p p p p p p p p p p p p p p p p p p p p p p p p p p p p p p p s p p p p p p p p s ........",
"......p p s p p p p p p p s p p p p p p p p p p p p p p p p p p p p p p p p p p p p p p p p p p p p p p p s p p p p p p p ......",
"....p p p p p p p p p p p p p p p p p p p p p p p p p p p p p p p p p p p p p p p p p p p p p p p p s p p p p p p p p p p p ....",
"..p p p p p p p p p p p p p p p p p p p p p p p p p p p p p p s p p p p p p p p p p p p p p p p p p p p p p p p p p p p p p s ..",
"..p p p p p p p p p s p p p p p p p p p p p p p p p p p p p p p p p p p p s p p p p p p p p p p p p p p p p p p p p p p p p p ..",
"a p p p p p p p p p p p p p p p p p p p p p p p p s p p p p p p p p p p p p p p p p p p p p p p p p p p p p p p p p p p p p p s ",
"s p p p p p p p p p p p p p p p p p p p p p p p p p p p p p p p p p p p p p p p p p p p p p p p p p p p p p s p p p p p p p p s ",
"p p p p p p p p p p p p p p p p p p p p p p p p p p p p p p p p p p p p p p p p p p p p p p p p p p p p p p p p p p p p p p p p ",
"p p p p p s p p p p s p s p p p p p p p d l l l k l k k k k h k n f p p p d n k f h d p p p p p s p p p p p p p p p p p p p p p ",
"p p p p p p p p p p p p p p p p p p p a L ( ^ ~ ~ ~ ~ ~ ~ ~ ~ (  .B p p p N | ) ! ^ ! l p p p p p p p p p p p p p s p p p p p p ",
"s p p p p p p p p p p p p p p p p p p m / x h k k k k k l k l x A k p p p k S x l l I U p p p p p p p p p p p p p p p p p p p p ",
"p p p p p p p p p p p p p p p p p p a W S p p p p p p p p p p i p p p p p p i i p p l ^ n p p p p p p p p p p p p p p p p p p p ",
"s p p p p s p p p p p p p s P A p p S ! d p F E R T T T T U T U U U I I I I I I J h i D W a p p p p p p p p p p p p p p p p p p ",
"p p p p p p p p p p p p p l [ I p h ^ m i b ( A B B V V C C A A A S S D S S S D Q K p d ~ A p p p p p p p p p s p p p p p p p s ",
"p p p s p p p p p p p p p J T d p L U p a E F p p i p p a i i i i i i i i i i i x ^ c i m ^ h p p p p p p p p p p p p p p p p p ",
"s p p p p p p p p p p p c ^ x i c ^ x i V ! g p p p p a U U F G F F D D D S S k p J T a a T J p p s p p p p p p p p p p p p p p ",
"p p p p p p p p p p p a T H p a R G p h ~ N i p p p p d E ! L L I P L I I I ~ I p h ^ m i c ( c p p p p p p p p p p p p p p p p ",
"p p p p p p p p p p i N ! g i B ~ g i H T a p p p p p p a a i p i p p i p i k ^ m i A ! d p J T s p p p p p p p p p p p p p p p ",
"s p p p p p s p p p f ~ B p g ~ B i x ( c p p p p p g l l l l l l l k l h a p S Q f a W D p h ^ M p p a g p p p p p p p p p p p ",
"p p p p p p p p p p G R a i G R a a U J i c W c p f W / ~ ~ ~ ~ ~ ~ ~ ~ ( m i d ^ R a n ( l i A ! d a F _ l p p s p p p p p p p ",
"p p p p p p p p p x ^ c 1 l ( c i m ^ g i H [ n i F E h h j h h j j h f F W d p L ! f a U L p a W D p m ' B i p p p p p p p p p ",
"s p p p p p p p a U K p p U J p f ! V p k ^ m p l / n p p q r ; ; ; w p d ! T f a d p i z _ F p m ' N p A _ N p p p p p p p p p ",
"p p p p p p p p m ^ k p m ^ k p D E a p K U a p L I p p e = # # # # o i a G ' x p p p p a W ! a h _ I p h _ L p p p p p p p p p ",
"p p p p p p p f ! C p d Q S i A ' n i c ^ x i S _ x p 4 X $ 0 u y u 9 p s K W P L L J m p h h N J v d x L B f p k K M p p p p p ",
"p p p s p p p F E a i S W a p L ^ g p U J p a E ~ d p t # ; p p p p p p d R N V A A C T m i h R L F i K I L p p D I Y d p p p p ",
"p p p p p p l / n p k ^ n p p d g p m ^ h p p g h p 4 X $ 8 p p p p p p f U V Q I I U C J p m J l U a L V R l s U B Y d p p p p ",
"s p p p p p I P p k Q U p p p p p a W S p p p p p p t # ; a p p p p p p f U D F p a I C L p J A v U l N I A I J G G G p p p p p ",
"p p p p p n / k i m { V i p p p i A Q f p a a p a i + = 6 p p p p p p p f I D F i a I C L a U A U G V p H G H U A U d p p p p p ",
"p p p p p n ^ k p a l a p n U k p J U p p F W g p < O $ 5 p p p p p p p f U A Q L U T V J c L J _ V L a d I B n R k p p p p p p ",
"s p p p p a Y G p p p p i A } N i l ^ v i D [ v p p ; # t p p p p p p p f I x B V V B U m A D U Q S U h p c I G A p p p p p p p ",
"p p p p p i c ^ l p p p i a H R a p F R a p H T a p 6 $ @ 3 p p p p p p f U A Q L I L m a I m I R B J m i l I G N p p p p p p p ",
"p p p p p p p I K p p p p p g ! N i g ~ m p h ~ m i a : # 0 p p p p p p d U D F p p p p l U n F G A A H p x I G m p p p p p p p ",
"p p p p p p p x ^ x p p p p p B ! f i C ! f i V ! f p 7 $ @ 9 < 2 i a p f U S F i p p p N H L H B R V U a l L H B p p p p p p p ",
"a p p p p p p p L I p p p p i a E D p a E S p a E F p a ; # . O O @ r 1 s Y Y A p p p i A T T f 1 B U E h k E R m i p p p p p p ",
"p p p p p p p p l ^ c p p l m a b ^ l i m ~ h i n ( l p , - * & & & : 1 p n F j p p p p h D c p i a S m a p N A s p p p p p p p ",
"p p p p p p p p i G U a p K } c p I L p a U K p p L I a p a > , , , < a p p p p C B p p p p p f G x i f F c i p p p p p p p p p ",
"s p p p p p p p p h ^ n p k ! S p l / c i x ^ x i l / I K K K K K K Y ~ l p p f ` Q a p p p i m | F i b | G i p p p p p p p p p ",
"p p p p p p p p p p D E a i m ~ k i F ! l p K U p p m K H H H G G G I ! k p p B ~ l p p p p a I I d p I U f p p p p p p p p p p ",
"p p p p p p s p p p f ~ m a a U K i l { I i k ^ n p p i i p i i p i p a p p c ( N p p p p p m ^ k p n / l p p p p p p p p p p p ",
"s p p p p p p p p p p C Q a i x ( x p m x p p S Q b c v v v n n n D N p p p E ' g a f p p d W S p s W F p p p p p p p p p p p p ",
"p p p p p p p p p p p a Q V p p K U a p p p p f R ~ ! Q ! ! Q Q Q ] E p p p c n p L ~ g i S Q d i A Q d p p p p p s p p p s p p ",
"p p p p p p p p p p p p N ! f i h ^ m i p p p p s d s s a a a a a x k p p p p p d ^ R a k ^ m p h ^ m p p p p p p p p p p p p p ",
"s p p p p p p p p p p p a E S i p S W a p p p l f a s a a a a a a a a a s s a a D W a p L U p f R T a p p p p p p p p p p p p p ",
"p p p p p p p p p p p p p m ~ h p d ! C i p l ` ) W Q Q Q Q Q Q Q Q Q Q Q ! Q ! _ m i c ( z i c { S p p s p p p p p p p p p p p ",
"p p p p p p p p p p p p p a T G i p m ^ h p h K C n b n n n v n n n n v n b n v x a a E G i p a c d p p p p p p p p p s p p p p ",
"s p p p p p p s p p p p p p c ^ l p a T H i p p i i p i i p i p p i i p p i i p i p B ! g p p p i p p p p p p p p p p p p p p p ",
"p p p p p p p p p p p p p p p U K p p c ( U L I I L I I I I I I I I I I I I I I I I ) N p p s p p p p p p p p p p p p p p p p p ",
"p p p p p p p p p p p p p p p x ) M p p m D D D D D D D D D S D S D D D D D D S D D V a p p p p p p p p p p p p p p s p p p p p ",
"s p p p p p s p p p s p p p p s ~ ) d p p p p p p i i i i i p i p i i i p i p i p i p p p p p p p p p p p s p p p p p p p p p p ",
"p p p p p p p p p p p p p p p p n M p p p p p p p a B V x x x x c x x x x c x c x c V B p p p p p p p p p p p p p p p p p p p p ",
"s p p p p p p p p p p p p p p p p p p p p p p p p a ^ ] ! ! ! ! ! ~ ! ! ~ ! ! ! ! ! ] ^ d p p p p p p p p p p p p p p p p s p p ",
"p p p s p p p p p p s p p p p p p p p p p p p p p p z z d d f d d d f d d d f d d f l x p p p p p p p p p p p p p p p p p p p p ",
"p p p p p p p p p p p p p p p p s p p p p p p p p p p p p p p p p p p p p p p p p p p p p p p p p p p p p p p p p p p p p p p p ",
"p p p p p p p p p p p p p p p p p p p p p p p s p p p p p p p p p p p p p p p p p p p p p p p p p p p p p p p p p p s p p p p p ",
"s p p p p p p s p p p p p p p p s p p p p p p p p p p p p p p p p p p p p p p p p p p p p p p p p p p p p p p p p p p p p p p s ",
"..s p p p p p p p p s p p p p p p p p p p p p p p p p s p p p p p p p p p p p p p p p p p p s p p p p p p p p p p p p p p p p ..",
"..p p p p p p p p p p p p p p p p p p p p p p p p p p p p p p p p p p p p p p p p s p p p p p p p p p p p p p p p s p p p p p ..",
"....p p p p p p p p p p p p p p p p p p p p p p p p p p p p p p p p p p p p p p p p p p p p p p p p p s p p p p p p p p p p ....",
"......p p p p p p p p p p s p p p p p p p p p p p p p p p p p p p p p p p p p p p p p p p p p p p p p p p p p p p p p p s ......",
"........p p p p p p p p p p p p p p p p p p s p p p p p p p p s p p p p p p p p p p p p p p p p p p p s p p p p p p p p ........",
"..........p p p p p p p p p p p p p p p p p p p p p p p p p p p p p p p p p p p p p p p p p p p p p p p p p p p s p p ..........",
"..............s s p p s p p s p p s p p s p p p p s p s p p s p p s p s p p p s p s p p s p s p p s p p s p p p s .............."
};
