/* XPM */
static char *cpay32[] = {
/* columns rows colors chars-per-pixel */
"32 32 235 2 ",
"   c #E24C6F",
".  c #E54C6E",
"X  c #E54D6F",
"o  c #E24F71",
"O  c #E35273",
"+  c #E45677",
"@  c #E75777",
"#  c #E55E7E",
"$  c #E85878",
"%  c #EC7690",
"&  c #68B2DC",
"*  c #6CB4DD",
"=  c #6DB4DD",
"-  c #6FB5DD",
";  c #71B6DE",
":  c #73B7DE",
">  c #76B9DF",
",  c #79BADF",
"<  c #79BAE0",
"1  c #7BBBE0",
"2  c #F08FA4",
"3  c #F198AB",
"4  c #EF9DB0",
"5  c #F29EB0",
"6  c #F2A6B7",
"7  c #F2ACBC",
"8  c #80BEE1",
"9  c #81BEE1",
"0  c #82BFE2",
"q  c #83BFE2",
"w  c #F3B4C2",
"e  c #F5B5C3",
"r  c #F4BCC9",
"t  c #F5BFCB",
"y  c #83C0E2",
"u  c #85C0E2",
"i  c #86C1E3",
"p  c #87C1E3",
"a  c #87C2E3",
"s  c #88C2E3",
"d  c #89C2E3",
"f  c #89C3E3",
"g  c #8AC3E3",
"h  c #8AC3E4",
"j  c #8BC3E4",
"k  c #8BC4E4",
"l  c #8CC4E4",
"z  c #8DC4E4",
"x  c #8DC5E4",
"c  c #8EC5E4",
"v  c #8EC5E5",
"b  c #8FC5E5",
"n  c #8FC6E5",
"m  c #90C6E5",
"M  c #91C6E5",
"N  c #91C7E5",
"B  c #92C7E5",
"V  c #91C7E6",
"C  c #92C7E6",
"Z  c #93C7E6",
"A  c #93C8E6",
"S  c #94C8E6",
"D  c #95C9E6",
"F  c #96C9E6",
"G  c #97C9E6",
"H  c #97CAE7",
"J  c #98CAE7",
"K  c #99CAE7",
"L  c #99CBE7",
"P  c #9ACBE7",
"I  c #9BCBE7",
"U  c #9FC9E4",
"Y  c #9BCCE7",
"T  c #9BCBE8",
"R  c #9BCCE8",
"E  c #9CCCE8",
"W  c #9DCCE8",
"Q  c #9DCDE8",
"!  c #9ECDE8",
"~  c #9FCEE9",
"^  c #A0CEE9",
"/  c #A1CFE9",
"(  c #A2CFE9",
")  c #B1CDE4",
"_  c #B2CCE4",
"`  c #A2D0E9",
"'  c #A3D0E9",
"]  c #A1D0EA",
"[  c #A3D0EA",
"{  c #A4D0EA",
"}  c #A5D1EA",
"|  c #A6D1EA",
" . c #A7D2EA",
".. c #A8D2EB",
"X. c #A8D3EB",
"o. c #A9D3EB",
"O. c #AAD3EB",
"+. c #ABD4EB",
"@. c #ABD4EC",
"#. c #ABD6ED",
"$. c #ACD4EC",
"%. c #ACD5EC",
"&. c #AED5EC",
"*. c #ACD6ED",
"=. c #AED6EC",
"-. c #AFD6EC",
";. c #B0D6EC",
":. c #B0D7ED",
">. c #B1D7ED",
",. c #B2D7ED",
"<. c #B4D7EC",
"1. c #B2D8ED",
"2. c #B3D8ED",
"3. c #B4D9EE",
"4. c #B5D9EE",
"5. c #B6D9EE",
"6. c #B6DAEE",
"7. c #B7DAEE",
"8. c #B6DAEF",
"9. c #B8DAEE",
"0. c #B9DBEF",
"q. c #BADBEF",
"w. c #BADCEF",
"e. c #BBDCEF",
"r. c #BCDCEF",
"t. c #BCDDEF",
"y. c #BEDDF0",
"u. c #BEDEF0",
"i. c #BFDEF0",
"p. c #C4C6DB",
"a. c #C5C8DC",
"s. c #F7C3CE",
"d. c #F7D0D9",
"f. c #C8D5E7",
"g. c #C9DCEC",
"h. c #C0DEF0",
"j. c #C0DFF0",
"k. c #C1DFF0",
"l. c #C1DFF1",
"z. c #F9D9E0",
"x. c #FBDCE3",
"c. c #C1E0F1",
"v. c #C2E0F1",
"b. c #C3E0F1",
"n. c #C4E0F1",
"m. c #C4E1F1",
"M. c #C5E1F1",
"N. c #C5E1F2",
"B. c #C5E2F2",
"V. c #C6E2F2",
"C. c #C7E2F2",
"Z. c #C7E3F2",
"A. c #C8E3F2",
"S. c #C9E3F2",
"D. c #CAE4F3",
"F. c #CBE4F3",
"G. c #CCE4F3",
"H. c #CCE5F3",
"J. c #CDE5F3",
"K. c #CDE6F3",
"L. c #CEE6F4",
"P. c #CFE6F4",
"I. c #D0E7F4",
"U. c #D1E7F4",
"Y. c #D1E8F4",
"T. c #D2E8F4",
"R. c #D3E8F5",
"E. c #D4E9F5",
"W. c #D6EAF5",
"Q. c #D7EAF6",
"!. c #D7EBF6",
"~. c #D8EBF6",
"^. c #D9ECF6",
"/. c #DAECF6",
"(. c #DBECF7",
"). c #DBEDF7",
"_. c #DDEEF7",
"`. c #DEEEF7",
"'. c #DFEEF7",
"]. c #DBEFF9",
"[. c #DFEFF8",
"{. c #FBE7EC",
"}. c #F9EBEF",
"|. c #FDECEF",
" X c #E0EFF8",
".X c #E1EFF8",
"XX c #FCEDF1",
"oX c #E1F0F8",
"OX c #E2F0F8",
"+X c #E3F1F8",
"@X c #E2F1F9",
"#X c #E1F2FA",
"$X c #E4F1F9",
"%X c #E5F2F9",
"&X c #E6F2F9",
"*X c #E7F2F9",
"=X c #E7F3F9",
"-X c #E7F5FC",
";X c #E8F3FA",
":X c #E9F3FA",
">X c #E9F4FA",
",X c #EAF4FA",
"<X c #EBF5FA",
"1X c #EBF5FB",
"2X c #ECF5FA",
"3X c #ECF5FB",
"4X c #EDF6FB",
"5X c #EEF6FB",
"6X c #EFF7FB",
"7X c #FEF1F3",
"8X c #FEF3F5",
"9X c #FAF5F7",
"0X c #F0F7FB",
"qX c #F0F7FC",
"wX c #F2F8FC",
"eX c #F2F9FC",
"rX c #F3F9FC",
"tX c #F4F9FC",
"yX c #F6FAFD",
"uX c #F6FBFD",
"iX c #F7FBFD",
"pX c #F8FBFD",
"aX c #F8FCFD",
"sX c #F9FCFD",
"dX c #F9FCFE",
"fX c #FAFCFE",
"gX c #FAFDFE",
"hX c #FBFDFE",
"jX c #FCFDFE",
"kX c #FCFEFE",
"lX c #FDFEFE",
"zX c #FDFEFF",
"xX c #FEFFFF",
"cX c white",
"vX c None",
/* pixels */
"vXvXvXcXcXcXcXcXcXcXcXcXcXcXcXcXcXcXcXcXcXcXcXcXcXcXcXcXcXvXvXvX",
"vXvXcXcXcXcXcXcXcXcXcXcXcXcXcXcXcXcXcXcXcXcXcXcXcXcXcXcXcXcXvXvX",
"vXcXcXcXcXcXcXcXcXcXcXcXcXcXcXcXcXcXcXcXcXcXcXcXcXcXcXcXcXcXcXvX",
"cXcXcXcXcXcXcXcXcX[.S.D.D.K.L.D.M.cXcXI.D.T.3XcXcXcXcXcXcXcXcXcX",
"cXcXcXcXcXcXcXcX>X0 { o.o.@.{ R J aXcX{ H J Z aXcXcXcXcXcXcXcXcX",
"cXcXcXcXcX3X^.cX/ w.OXi.v.M.M.M.M.M.M.S.K.3XJ j.cXcXcXcXcXcXcXcX",
"cXcXcXcXcX' Z ~.l %X0 o.:.:.1.1.:.:.&.:.J H [.a qXcXcXcXcXcXcXcX",
"cXcXcXcX%Xa :XZ E.{ 2.cXcXOXH 1.1.2.2.2.%XH S.:.o.cXcXcXcXcXcXcX",
"cXcXcXcXQ v.M.Q ~.d pXcXcX>X1.M.M.M.M.&.Z ~.h %Xd OXcXcXcXcXcXcX",
"cXcXcXI.Z >Xa  XZ D.E.pX'.{ @.@.&.&.1.rXT &...2.M.J cXj.%XcXcXcX",
"cXcXuXl ^.&.2.M.Q ).* OXk 2.g.a.a.f.Q ' T.H :X0 ).Z M.Z Q cXcXcX",
"cXcX9.{ OXd OXd OXJ S.t.' 7X%   o 3 6X& K.qXcX@.J M.0 OX; OXcXaX",
"cX>Xa :XJ D./ Q T.Z ;X* OX6 + d.z.|.3Xl Q Q ..%XI.Q E...:.aX..t.",
"cX/ t.v.Z cX3X3Xl E.cXOXXX+ 7 cXcXcX:XQ ' :.J L.i.2.j.{ ' M.J &.",
"^.a uXa K.rXaXM.Y aXOXcXr O XXcXcXcX%XJ 2.T.H i.{ H :.I.R J / %X",
">Xh >XaXcXJ ..T.H %X* -Xs.o {.cXcXcX%X..Q J R 9.J ; Q 3X9.' T.cX",
"cX2...cXcX%Xa >XH L.9.{ 8X# 4 cXcXcX%XQ { S.^.j.o.A { E.K.H OXcX",
"cXrXd %XcXcX2...[.l 6Xk ].e   w t x.%XZ M.cXcX{ J j.H 9.D.Z %XcX",
"cXcXi./ cXK.E.l [.' i.L.Z 9X2 $ @ 5 aXw.OXaXcXM.I.aXM.K.OX9.uXcX",
"cXcXuXh OXQ Q K.R %Xh 3XJ R 2._ _ U K.cXj.l cXcXrX1 OXQ :.cXcXcX",
"cXcXcXM.Q rXh ).y 2.2.&.0Xj.j.v.v.@.T.rXa K.cXcXi.J  X0 :XcXcXcX",
"cXcXcXaXl ~.M.Q ^.^.uXa { &.&.&.Q 2.cXv.l ^.%X0Xa %XQ v.cXcXcXcX",
"cXcXcXcXI.H aXZ T.cXcXOXM.S.S.K.i.K.cXaXrX, v...2.I.Z aXcXcXcXcX",
"cXcXcXcXaXH I.^.l aX Xl ..{ { { { { / ' l / ^.d 0X> K.cXcXcXcXcX",
"cXcXcXcXcXE.Z aXQ j.3X9.I.I.I.L.I.L.L.L.T.3XZ D.cXOXaXcXcXcXcXcX",
"cXcXcXcXcXcXR M.%X0 H J J J J J J J J H J d R cXcXcXcXcXcXcXcXcX",
"cXcXcXcXcXcXE.; uX3XOXOX X).OXOXOXOX XOXOX X3XcXcXcXcXcXcXcXcXcX",
"cXcXcXcXcXcXaXOXaXcXcXcXD.< J J H H H H H l a uXcXcXcXcXcXcXcXcX",
"cXcXcXcXcXcXcXcXcXcXcXcX3XE.OXOX XOXOXOXOX).^.cXcXcXcXcXcXcXcXcX",
"vXcXcXcXcXcXcXcXcXcXcXcXcXcXcXcXcXcXcXcXcXcXcXcXcXcXcXcXcXcXcXvX",
"vXvXcXcXcXcXcXcXcXcXcXcXcXcXcXcXcXcXcXcXcXcXcXcXcXcXcXcXcXcXvXvX",
"vXvXvXcXcXcXcXcXcXcXcXcXcXcXcXcXcXcXcXcXcXcXcXcXcXcXcXcXcXvXvXvX"
};
