/* XPM */
static char *cpay32[] = {
/* columns rows colors chars-per-pixel */
"32 32 248 2 ",
"   c #7E487F",
".  c #9F3A6D",
"X  c #903F73",
"o  c #943D71",
"O  c #993C70",
"+  c #A1396B",
"@  c #8D4277",
"#  c #82447B",
"$  c #0D76BB",
"%  c #0A77BD",
"&  c #1F73B6",
"*  c #1779BC",
"=  c #2D65A7",
"-  c #226CAF",
";  c #3E62A2",
":  c #3267A8",
">  c #3A6AA9",
",  c #3872AF",
"<  c #367EBA",
"1  c #545794",
"2  c #724C85",
"3  c #66508A",
"4  c #60548F",
"5  c #7A5288",
"6  c #7B5288",
"7  c #666CA2",
"8  c #686BA1",
"9  c #0079C2",
"0  c #007AC2",
"q  c #007BC2",
"w  c #017BC2",
"e  c #007BC3",
"r  c #017BC3",
"t  c #0679C0",
"y  c #007CC3",
"u  c #017CC3",
"i  c #017DC3",
"p  c #027CC3",
"a  c #037CC3",
"s  c #037DC3",
"d  c #057CC3",
"f  c #007DC5",
"g  c #027DC4",
"h  c #037DC4",
"j  c #007EC5",
"k  c #057EC4",
"l  c #057FC4",
"z  c #067FC4",
"x  c #077FC5",
"c  c #3A80BB",
"v  c #0880C5",
"b  c #0980C5",
"n  c #0981C5",
"m  c #0A80C5",
"M  c #0A81C5",
"N  c #0B82C6",
"B  c #0C81C5",
"V  c #0C82C6",
"C  c #0D82C6",
"Z  c #0D83C6",
"A  c #0E83C6",
"S  c #0F83C6",
"D  c #1083C6",
"F  c #1285C7",
"G  c #1484C7",
"H  c #1486C7",
"J  c #1587C8",
"K  c #1686C8",
"L  c #1786C8",
"P  c #1687C8",
"I  c #1589C9",
"U  c #1788C8",
"Y  c #1788C9",
"T  c #1989C9",
"R  c #1A89C9",
"E  c #1B89C9",
"W  c #1C89C9",
"Q  c #1C8AC9",
"!  c #1D8AC9",
"~  c #1C8ACA",
"^  c #1C8BCA",
"/  c #1D8BCA",
"(  c #1F8BCA",
")  c #208BCA",
"_  c #208CCA",
"`  c #218CCA",
"'  c #218DCB",
"]  c #228CCA",
"[  c #228DCB",
"{  c #238DCB",
"}  c #238ECB",
"|  c #248ECB",
" . c #268FCB",
".. c #228ECC",
"X. c #258FCC",
"o. c #268FCC",
"O. c #278FCC",
"+. c #2690CC",
"@. c #2790CC",
"#. c #2890CC",
"$. c #2990CC",
"%. c #2991CD",
"&. c #2A90CC",
"*. c #2A91CC",
"=. c #2B91CD",
"-. c #2A92CD",
";. c #2B92CD",
":. c #2C91CD",
">. c #2C92CD",
",. c #2D92CD",
"<. c #2C93CD",
"1. c #2D93CD",
"2. c #2E93CD",
"3. c #2E93CE",
"4. c #2E94CE",
"5. c #2F94CE",
"6. c #3094CE",
"7. c #3194CE",
"8. c #3095CE",
"9. c #3195CE",
"0. c #3195CF",
"q. c #3295CE",
"w. c #3295CF",
"e. c #3296CF",
"r. c #3396CF",
"t. c #3496CF",
"y. c #3596CF",
"u. c #3497CF",
"i. c #3597CF",
"p. c #3797CF",
"a. c #3599D1",
"s. c #3698D0",
"d. c #3798D0",
"f. c #3898D0",
"g. c #3899D0",
"h. c #3999D0",
"j. c #3A99D0",
"k. c #3B99D0",
"l. c #399AD1",
"z. c #3B9AD1",
"x. c #3B9BD2",
"c. c #3C9AD1",
"v. c #3D9AD1",
"b. c #3D9BD1",
"n. c #3F9BD1",
"m. c #3D9CD1",
"M. c #3F9CD1",
"N. c #3E9CD2",
"B. c #3F9CD2",
"V. c #3F9DD2",
"C. c #409DD2",
"Z. c #419DD2",
"A. c #429DD2",
"S. c #439ED3",
"D. c #449ED3",
"F. c #449FD3",
"G. c #46A0D4",
"H. c #47A1D4",
"J. c #47A2D5",
"K. c #48A0D4",
"L. c #48A1D4",
"P. c #49A1D4",
"I. c #4AA1D4",
"U. c #49A2D4",
"Y. c #48A2D5",
"T. c #4AA2D4",
"R. c #4AA2D5",
"E. c #4AA3D5",
"W. c #4BA3D5",
"Q. c #4CA2D5",
"!. c #4CA3D5",
"~. c #4DA3D5",
"^. c #4DA4D5",
"/. c #4EA4D5",
"(. c #4FA5D6",
"). c #50A5D6",
"_. c #51A5D6",
"`. c #52A6D6",
"'. c #53A7D7",
"]. c #54A7D7",
"[. c #55A7D7",
"{. c #55A8D7",
"}. c #56A8D7",
"|. c #57A8D7",
" X c #57A9D7",
".X c #53AAD9",
"XX c #53AADA",
"oX c #57A9D8",
"OX c #57AAD9",
"+X c #58A9D8",
"@X c #59A9D8",
"#X c #59AAD8",
"$X c #5AAAD8",
"%X c #5BAAD8",
"&X c #5CABD8",
"*X c #5CABD9",
"=X c #5DACD9",
"-X c #5EACD9",
";X c #5EADD9",
":X c #5FADD9",
">X c #5EAFDC",
",X c #5FAFDC",
"<X c #60ADD9",
"1X c #60ADDA",
"2X c #61AEDA",
"3X c #61AFDB",
"4X c #62AEDA",
"5X c #63AFDA",
"6X c #64AFDB",
"7X c #60B0DB",
"8X c #64B0DB",
"9X c #65B0DB",
"0X c #66B0DB",
"qX c #67B1DB",
"wX c #68B1DB",
"eX c #69B2DC",
"rX c #6AB2DC",
"tX c #6AB3DC",
"yX c #6BB3DC",
"uX c #6CB3DC",
"iX c #6AB4DD",
"pX c #6CB4DD",
"aX c #6EB4DD",
"sX c #6EB5DD",
"dX c #6FB5DD",
"fX c #70B5DD",
"gX c #70B6DD",
"hX c #71B6DD",
"jX c #72B6DD",
"kX c #70B6DE",
"lX c #71B6DE",
"zX c #72B6DE",
"xX c #72B7DE",
"cX c #73B7DE",
"vX c #74B6DE",
"bX c #75B8DF",
"nX c #76B8DF",
"mX c #76B9DF",
"MX c #78BADF",
"NX c #79BADF",
"BX c #78BBE0",
"VX c #7ABBE0",
"CX c #7BBBE0",
"ZX c #7DBCE0",
"AX c #7EBDE1",
"SX c #80BEE1",
"DX c #8FC6E5",
"FX c None",
/* pixels */
"FXFXFXi i i e i i e i i e i i e i i e i i e i e i e i i i FXFXFX",
"FXFXe i i e e i e i e i i e e i i e i e i e e i i i i e e i FXFX",
"FXi e e i e i e i e e i e i i e i e e i e i e i e i e i i e i FX",
"i i i i e i e i e i i i i e e i e i i e i e i e i e i e e i i i ",
"i e e i i i e i e i e e e e e i e i i e e e i i e i e i i e i i ",
"i i i e i e i e i M `.$X$X$X|.5X`.e ~ iX@Xf.e e i e i i e i i e ",
"i e e i i e i z e C.|.| 4.4.4.t.6.M E h.;.uX( e e i i e i e e i ",
"i i i e i e E aXE 0X;.aX5X5X;X;X;X5X;X5X@X6.5Xi i e e i e i i e ",
"i e i e i e `.C.].h.&X6.j B Q.C.N.N.C.;.|.v.&X6.e e e i e i i e ",
"i e i i e | 5X;.5Xt.&Xe i M `.C.C.C.C.aX6.wX=.wXM e e i i e e i ",
"i i e e d 5X$.5X6.qX6.t.B $XOXXXOXOXn.<.jXL.E.L.C.] n.i i i i e ",
"i e i e h.`.f.`.D.F.`.].Q.E.< 7 8 c wXC.D.H jXf.jXN.AX~ e e e i ",
"i e e D rX] wXd.vX| 5X6.jX* o X # = J.AXh.;.h.E.5Xh.wX<.| H e i ",
"i e e (.N.Q.N.O.f.@X6.6.a.1 @ t i e E.bXjXbX4.Q.;XL.bX] jXE.e e ",
"i e ~ wXO.CXB i  .5Xx x % O ; j i e L.aX4.jXE.5XrXC.rXbXjX| e i ",
"i e ~ 0XB F ;.5X6.@Xf.5X$ + : j e i D.aXjXvX].SXDXC.t.iXC.e i e ",
"i i e ].t.e M wX .;X;.0X..3   i j e L.jXC.6.E.aXbX|.] vX;.e e i ",
"i i e E wXx e | 5X=.;X=.7X& + 2 4 - E.rXd d 0X;XH.bX<.MX| e i e ",
"e i e e ).f. .`.].t.|.6.|.x.> 5 6 , I +.<.d ] ) 6.6.d.;.M e i e ",
"i e e e H wX) jX=.jX4.0X~ 0X7X,X;XBXH ;.MXx e C.0Xn.aXi e i e i ",
"i i e i e L.C.f.`.Q.<.L.`.;.6.6.N.+.M MX6.M B wX] wXH e i e i e ",
"i e e i i B wXL 5X] e B E.(.(.W.5X<.e ~ |.(.E.C.L.D.e e e i e i ",
"i e i e i e C.L.| 5Xi C.@X(.(.Q.(.(.(.`.aX;.0X| AXB e i e i i i ",
"i i e i e i B wXL &Xt.6.N.d.t.d.i.a.t.h.] ;X4.z U i i e i e i e ",
"i i i e i e e f.&XE rX5X5X;X;X;X;X;X&X5X0X(.i e e i i i e i e i ",
"i e i e e i i B 5XB j d M d.<.<.<.<.<.<.4.6.z i i e e i i e i e ",
"i i e i e i i e i i i e M 5X|.`.].].`.].|.5XM e i e i e e i i e ",
"i e i e i i e i e i e i i i e e e e e e e i i e e i e i i i e i ",
"i i i e e i e i i e i e i e i e e i e i e i e i e i e i e i e i ",
"FXe i i i e i e e i e i i i e i e i i e i i i e i e i e i e i FX",
"FXFXi e i e i e e i e e e i i e e e e i e e i e i e e i i i FXFX",
"FXFXFXi i i i i i i i i i i i i i i i i i i i i i i i i i FXFXFX"
};
