/* XPM */
static char *cpay16[] = {
/* columns rows colors chars-per-pixel */
"16 16 106 2 ",
"   c #EF9BAE",
".  c #D6A0B8",
"X  c #D1A7BE",
"o  c #F4A7B7",
"O  c #F5AEBD",
"+  c #CFAEC5",
"@  c #D7ADC2",
"#  c #E4B2C4",
"$  c #E4B6C8",
"%  c #9BCCE8",
"&  c #A6D1EA",
"*  c #A8D2EB",
"=  c #ADD5EC",
"-  c #AFD6EC",
";  c #B4D5EB",
":  c #B0D7ED",
">  c #B3D8ED",
",  c #B3D9EE",
"<  c #B4D8ED",
"1  c #B4D9ED",
"2  c #B4D9EE",
"3  c #B5D9EE",
"4  c #B6D9EE",
"5  c #B4DBEF",
"6  c #B6DAEE",
"7  c #B7DAEE",
"8  c #B8DBEE",
"9  c #B9DBEE",
"0  c #B9DBEF",
"q  c #BADBEF",
"w  c #B8DCEF",
"e  c #BADCEF",
"r  c #BBDCEF",
"t  c #BCDCEF",
"y  c #BCDDEF",
"u  c #B6DCF0",
"i  c #B8DDF0",
"p  c #BCDDF0",
"a  c #BDDDF0",
"s  c #BEDDF0",
"d  c #BEDEF0",
"f  c #BFDEF0",
"g  c #C1D5E8",
"h  c #C0D7EA",
"j  c #C0DEEF",
"k  c #C1DFF0",
"l  c #C1DFF1",
"z  c #C4DFF0",
"x  c #C2E0F1",
"c  c #C3E0F1",
"v  c #C4E1F1",
"b  c #C5E1F1",
"n  c #C6E2F2",
"m  c #C7E2F2",
"M  c #C8E3F2",
"N  c #C9E3F2",
"B  c #CBE4F3",
"V  c #CCE5F3",
"C  c #CDE5F3",
"Z  c #CEE6F3",
"A  c #CEE6F4",
"S  c #D1E7F4",
"D  c #D3E8F5",
"F  c #D3E9F5",
"G  c #D1E9F6",
"H  c #D5E9F5",
"J  c #D6EAF5",
"K  c #D7EAF5",
"L  c #D7EAF6",
"P  c #DBEAF4",
"I  c #D9EBF6",
"U  c #D9ECF6",
"Y  c #DBECF6",
"T  c #DEEEF7",
"R  c #FAE0E6",
"E  c #FDE2E7",
"W  c #FEE9ED",
"Q  c #E1EFF8",
"!  c #E1F0F8",
"~  c #E3F1F8",
"^  c #E5F1F9",
"/  c #E6F2F9",
"(  c #E7F3F9",
")  c #E8F3F9",
"_  c #E8F3FA",
"`  c #E9F4FA",
"'  c #EAF4FA",
"]  c #EBF5FA",
"[  c #ECF5FA",
"{  c #ECF5FB",
"}  c #EDF6FB",
"|  c #EEF6FB",
" . c #EFF7FB",
".. c #F0F7FC",
"X. c #F0F8FC",
"o. c #F2F8FC",
"O. c #F5FAFD",
"+. c #F6FAFD",
"@. c #F9FCFE",
"#. c #FAFCFE",
"$. c #FCFDFE",
"%. c #FDFEFE",
"&. c #FDFEFF",
"*. c #FEFFFF",
"=. c #FFFFFF",
"-. c None",
/* pixels */
"-.=.=.=.=.=.=.=.=.=.=.=.=.=.=.-.",
"=.=.=.=.o.! ~ ! } o.! +.=.=.=.=.",
"=.=.+.} y 7 7 : N B : b =.=.=.=.",
"=.=.V 7 7 b G , 7 7 7 7 T =.=.=.",
"=.' 8 8 7 ^ U 7 8 y - 7 d _ +.=.",
"=.b 8 7 7 , g . @ ; l b - = b @.",
"L 7 b N y G # O W j * d 8 7 8 8 ",
"r V L b d L   R =.b & = % r - V ",
"T V } 8 y 8 $ o E l B V & 8 8 _ ",
"=.N V 7 8 y t X @ P S } V d G @.",
"=.^ y 8 j z r 5 u I 8 ^ 8 8 o.=.",
"=.=.N l L L 7 8 u G 7 7 8 L =.=.",
"=.=.' y y 7 7 7 7 7 7 N o.@.=.=.",
"=.=.=.L ' _ l 7 8 8 7 U =.=.=.=.",
"=.=.=.=.=.=.' _ ' _ ^ o.=.=.=.=.",
"-.=.=.=.=.=.=.=.=.=.=.=.=.=.=.-."
};
