/* XPM */
static char *cpay64[] = {
/* columns rows colors chars-per-pixel */
"64 64 98 2 ",
"   c #DA1B47",
".  c #DA1D49",
"X  c #DB234D",
"o  c #DC2751",
"O  c #DD2D55",
"+  c #DE345B",
"@  c #DF395F",
"#  c #E03D63",
"$  c #E04166",
"%  c #E1476B",
"&  c #E24C6E",
"*  c #E24D70",
"=  c #E45778",
"-  c #E45878",
";  c #047DC4",
":  c #097FC5",
">  c #E66180",
",  c #E76B88",
"<  c #E8728D",
"1  c #EA7C95",
"2  c #EA7F98",
"3  c #0C81C5",
"4  c #1284C7",
"5  c #1686C8",
"6  c #1887C8",
"7  c #1688C8",
"8  c #1C8ACA",
"9  c #228DCB",
"0  c #2790CC",
"q  c #2C92CD",
"w  c #3396CF",
"e  c #3697D0",
"r  c #3698D0",
"t  c #3C9BD1",
"y  c #429ED3",
"u  c #46A0D4",
"i  c #4BA2D5",
"p  c #52A6D6",
"a  c #56A8D7",
"s  c #5BABD8",
"d  c #62AEDA",
"f  c #66B0DB",
"g  c #6CB3DC",
"h  c #72B6DE",
"j  c #76B8DF",
"k  c #78BADF",
"l  c #7CBCE0",
"z  c #EB829B",
"x  c #ED91A7",
"c  c #EE95AA",
"v  c #EF9CAF",
"b  c #F09FB2",
"n  c #F0A2B4",
"m  c #F1A7B8",
"M  c #F2AEBE",
"N  c #F2B0BF",
"B  c #82BFE2",
"V  c #F3B2C1",
"C  c #F5BECA",
"Z  c #85C0E2",
"A  c #8CC4E4",
"S  c #92C7E5",
"D  c #95C9E6",
"F  c #99CBE7",
"G  c #9DCDE8",
"H  c #A1CFE9",
"J  c #A5D1EA",
"K  c #ACD4EC",
"L  c #B1D7ED",
"P  c #B5D9EE",
"I  c #BBDCEF",
"U  c #BEDEF0",
"Y  c #F6C7D2",
"T  c #F7CCD6",
"R  c #F7CFD8",
"E  c #F7D0D9",
"W  c #F9D6DE",
"Q  c #C0DFF0",
"!  c #FADDE3",
"~  c #C5E1F1",
"^  c #CCE5F3",
"/  c #D0E7F4",
"(  c #D5E9F5",
")  c #DCEDF7",
"_  c #DFEFF8",
"`  c #FAE0E6",
"'  c #FEE5E9",
"]  c #FDEAEE",
"[  c #E0EFF8",
"{  c #FCEEF2",
"}  c #E5F2F9",
"|  c #EBF5FA",
" . c #FDF2F5",
".. c #F0F7FC",
"X. c #FFF7F8",
"o. c #F4FAFD",
"O. c #FFFFFF",
"+. c None",
/* pixels */
"+.+.+.+.+.+.+.O.O.O.O.O.O.O.O.O.O.O.O.O.O.O.O.O.O.O.O.O.O.O.O.O.O.O.O.O.O.O.O.O.O.O.O.O.O.O.O.O.O.O.O.O.O.O.O.O.O.+.+.+.+.+.+.+.",
"+.+.+.+.+.O.O.O.O.O.O.O.O.O.O.O.O.O.O.O.O.O.O.O.O.O.O.O.O.O.O.O.O.O.O.O.O.O.O.O.O.O.O.O.O.O.O.O.O.O.O.O.O.O.O.O.O.O.O.+.+.+.+.+.",
"+.+.+.+.O.O.O.O.O.O.O.O.O.O.O.O.O.O.O.O.O.O.O.O.O.O.O.O.O.O.O.O.O.O.O.O.O.O.O.O.O.O.O.O.O.O.O.O.O.O.O.O.O.O.O.O.O.O.O.O.O.+.+.+.",
"+.+.+.O.O.O.O.O.O.O.O.O.O.O.O.O.O.O.O.O.O.O.O.O.O.O.O.O.O.O.O.O.O.O.O.O.O.O.O.O.O.O.O.O.O.O.O.O.O.O.O.O.O.O.O.O.O.O.O.O.O.O.+.+.",
"+.+.O.O.O.O.O.O.O.O.O.O.O.O.O.O.O.O.O.O.O.O.O.O.O.O.O.O.O.O.O.O.O.O.O.O.O.O.O.O.O.O.O.O.O.O.O.O.O.O.O.O.O.O.O.O.O.O.O.O.O.O.+.+.",
"+.O.O.O.O.O.O.O.O.O.O.O.O.O.O.O.O.O.O.O.O.O.O.O.O.O.O.O.O.O.O.O.O.O.O.O.O.O.O.O.O.O.O.O.O.O.O.O.O.O.O.O.O.O.O.O.O.O.O.O.O.O.O.+.",
"+.O.O.O.O.O.O.O.O.O.O.O.O.O.O.O.O.O.O.O.O.O.O.O.O.O.O.O.O.O.O.O.O.O.O.O.O.O.O.O.O.O.O.O.O.O.O.O.O.O.O.O.O.O.O.O.O.O.O.O.O.O.O.+.",
"O.O.O.O.O.O.O.O.O.O.O.O.O.O.O.O.O.O...P J K K K L P P P P I I P l U O.O.O.O._ B K Q Q Q _ O.O.O.O.O.O.O.O.O.O.O.O.O.O.O.O.O.O.O.",
"O.O.O.O.O.O.O.O.O.O.O.O.O.O.O.O.O.O.G 9 i i i u u u y u y y y t ; g O.O.O.O.K : 0 y y r u } O.O.O.O.O.O.O.O.O.O.O.O.O.O.O.O.O.O.",
"O.O.O.O.O.O.O.O.O.O.O.O.O.O.O.O.O.[ t G O.o.o.o.o.o.o.........} P ) O.O.O.O.| K ) | | [ y Z O.O.O.O.O.O.O.O.O.O.O.O.O.O.O.O.O.O.",
"O.O.O.O.O.O.O.O.O.O.O.O.O.O.O.O.O.l p ..O.O.O.O.O.O.O.O.O.O.O.O.O.O.O.O.O.O.O.O.O.O.O.O.P w ( O.O.O.O.O.O.O.O.O.O.O.O.O.O.O.O.O.",
"O.O.O.O.O.O.O.O.O.O.O.( D | O.O.~ q ~ O...G Z A A A A S D D D F F G G H H J J J J K ) O.O.d d O.O.O.O.O.O.O.O.O.O.O.O.O.O.O.O.O.",
"O.O.O.O.O.O.O.O.O.O.O.j ; K O.o.a j O.O.J 0 d d d d s s a s s a a a p p i p i i i t i ..O./ w P O.O.O.O.O.O.O.O.O.O.O.O.O.O.O.O.",
"O.O.O.O.O.O.O.O.O.O.| y g | O.K w _ O.} t F O.O.O.O.O.O.O.O.O.O.O.O.O.O.O.O.O.O.O.} t F O.O.B i ..O.O.O.O.O.O.O.O.O.O.O.O.O.O.O.",
"O.O.O.O.O.O.O.O.O.O.A i | O.| t D O.O.B i ..O.O.O.O.O.o.( o.O.O.O.O.O.O.O.O.O.O.O.O.J t [ O.} t F O.O.O.O.O.O.O.O.O.O.O.O.O.O.O.",
"O.O.O.O.O.O.O.O.O.( w P O.O.Z i | O.^ w I O.O.O.O.O.O.J 7 y a a a a a a a s s s K O...p l O.O.G r } O.O.O.O.O.O.O.O.O.O.O.O.O.O.",
"O.O.O.O.O.O.O.O.O.f f o.O.( w P O.O.d g O.O.O.O.O.O.O.Q i B F F D D D D D D D g t } O.U q ^ O...p l O.O.O.O.O.O.O.O.O.O.O.O.O.O.",
"O.O.O.O.O.O.O.O.P w ( O.O.f d O.O.K w ( O.O.O.O.O.O.O.O.O.O.O.O.O.O.O.O.O.O.O...i l O.O.g a O.O.U q ^ O.O.O.O.O.O.O.O.O.O.O.O.O.",
"O.O.O.O.O.O.O.| i Z O.O.P w / O.| u A O.O.O.O.O.O.O.o.o...o.o.o.O.o.O.o.O.o.O.O.Q w ^ O.) w L O.O.g s o.O.O.O.O.O.O.O.O.O.O.O.O.",
"O.O.O.O.O.O.O.D y | O.| i Z O.O.S y | O.I G o.O.O.G y u u i i i i i i i i f | O.O.g y ( O.A y | O.) w L O.O.I p ~ O.O.O.O.O.O.O.",
"O.O.O.O.O.O.) w K O.O.D t } O.) r L O.o.y 6 ( O.) w Z K K K K K K K K J J t Z O.O.J ; l O.| y A O.O.A y | O.F ; Z O.O.O.O.O.O.O.",
"O.O.O.O.O.O.g s o.O._ t J O.O.g d o.O.~ q F o.O.h s O.O.O.X.] ' ' ' { O.O.P w ~ O.} D / O.O.K w ^ O.| y Z O.o.B y _ O.O.O.O.O.O.",
"O.O.O.O.O.Q w ^ O.O.k a O.O.Q w ^ O.O.a j O.O.~ w ~ O.O.T > # @ @ @ % Y O.o.p 8 ~ O.O.O.O.O.o.y 9 ( O.D 3 D O.| w w ( O.O.O.O.O.",
"O.O.O.O...i B O.O.~ w ~ O.| i B O.O.K w ) O.O.a j O.O.' & . o O O O @ C O.O.D w ~ O.O.O.O.O.O.Z t ) O.~ t F O.O.B t _ O.O.O.O.O.",
"O.O.O.O.F t } O.o.a k O.| a q _ O.| u S O.o.h 0 ) O.O.x . % C E R R ! X.O...l f j k k j Z ( O.o...} Z G } O._ B J | O.O.) l L O.",
"O.O.O._ t J O.O.J t [ O.[ 0 s O.O.D y | O.} q y ..O.` $ X n O.O.O.O.O.O.O.} f ~ ~ ~ ~ ~ K d ( O.O.D A g ^ O.A A f } O.O.Z A g } ",
"O.O.O.j a o.O.} t G O.O.O._ } O.[ r J O.O.O./ ) O.O.x . & ] O.O.O.O.O.O.O.| h ^ d h h g J J S O.o.h [ J F O.Z I j Q O...g ~ g _ ",
"O.O.~ q ~ O.| j p ..O.O.O.O.O.O.l a o.O.O.O.O.O.O.` $ X b O.O.O.O.O.O.O.O.} h Q h | | ^ h I Z O.( h | ^ h O.J B ~ f } D A U g ..",
"O.o.a k O.O.Z ; F O.O.O.O.O.O.^ w I O.O.O.O.O.O.O.b . & ] O.O.O.O.O.O.O.O.} h Q l O.O._ h U B O.J D J ~ h _ o.l J K p j / g ^ O.",
"O.~ 0 ( O.O.P s ( O.O.} ..O.O.g s O.O.O.^ _ O.O.O.1   2 O.O.O.O.O.O.O.O.O.} h Q g } } ~ h U B O.l Q a D D K O.} g U J ^ j K O.O.",
"O.| y F O.O.O.O.O.O.) q j O.O.A i ..O.( 8 a O.O.O.z   < O.O.O.O.O.O.O.O.O.} h / g h h g K J D } g ^ i g I B O.O.^ g } D A O.O.O.",
"O.O.J t } O.O.O.O.O._ t t ..O.} y H O.| d w } O.O.V X @ W O.O.O.O.O.O.O.O.} g | ~ Q ~ Q J f _ Q Z J g d ~ g | O.O.l I g _ O.O.O.",
"O.O...i A O.O.O.O.O.O.) t J O.O.H t } O...p B O.O.{ = . z O.O.O.O.O.O.O.O.} h ~ p l l l A ) O.A P K g h ( B ~ O.O.Z P j [ O.O.O.",
"O.O.O.L t _ O.O.O.O.O.O.F t | O...p Z O.O.I w / O.O.M X @ W O.O.O.O.O.O.O.} h Q k O.O.O.O.O...g ( Q P P ( J S O.O.Z I h [ O.O.O.",
"O.O.O.o.a l O.O.O.O.O.O.| i A O.O.P w ( O.O.g d O.O. .= . z O.O.O.O.O.O.O.} h Q l O.O.O.O.O./ l Q a A B d ~ h o.O.Z P h _ O.O.O.",
"O.O.O.O.I w ( O.O.O.O.O.O.P w ) O.O.d g O.O.( w K O.O.N X + z c c c m { O.| g P l O.O.O.O.O.J S A K O.O.l P g _ O.Z L h [ O.O.O.",
"O.O.O.O.O.s h O.O.O.O.O.O.O.s g O.O.^ w ~ O.O.A u | O.X.< .         X N O.O.B a K O.O.O.O.O.^ d g | O.O.~ s h ..O.P s l o.O.O.O.",
"O.O.O.O.O.~ w ^ O.O.} s J O.^ w Q O.O.l a o.O.| y S O.O.] v < , , , 1 ` O.O.o.} O.O.O.O.O.O.O.} | O.O.O.O.} ..O.O.O.} ..O.O.O.O.",
"O.O.O.O.O.O.g f O.O.~ 3 a O.O.l a o.O._ t K O.O.K w ) O.O.O.O.O.O.O.O.| ..O.O.O.O.P a ^ O.O.O.O.O.O.G a _ O...g l O.O.O.O.O.O.O.",
"O.O.O.O.O.O./ w U O.O.H r ) O.[ t J O.O.S u | O.o.s t g g f g f f f f w s o.O.O.O.g 3 K O.O.O.O.O.O.p 4 ~ O.( 6 i ..O.O.O.O.O.O.",
"O.O.O.O.O.O.O.k s o.O.o.s j O.O.D t ~ O.| u D O.O.( B l Z Z Z Z B Z Z u g o.O.O._ t F O.O.O.O.O.O.^ w K O.O.Z i ) O.O.O.O.O.O.O.",
"O.O.O.O.O.O.O.) r P O.O.~ w ~ O.[ 9 q | O.J r } O.O.O.O.O.O.O.O.O.O.O.o.o.O.O.| g a o.O.O.O.O.O.o.a h O.O./ w P O.O.O.O.O.O.O.O.",
"O.O.O.O.O.O.O.O.B p o.O.O.h s O.O.S Z o.O.o.a l O.O.O.O.O.O.o.O.O.| ( o.O.O.O.j : L O.O.O.O.O.O.K t _ O.o.d g O.O.O.O.O.O.O.O.O.",
"O.O.O.O.O.O.O.O.[ t K O.O.) r L O.O.O.O.O.O.Q 0 i p i p i i i i i w 8 ~ O.O.O.F a [ ..S P O.O.| y S O.O.P r ( O.O.O.O.O.O.O.O.O.",
"O.O.O.O.O.O.O.O.O.S u | O.O.Z i | O.O.O.O.O.O.L F G G G G J J J J B a _ O.O.O.O.O.O.^ 3 p O.O.Z i | O.| i A O.O.O.O.O.O.O.O.O.O.",
"O.O.O.O.O.O.O.O.O.| y G O.O.| y F O.O.O.O.O.O.O.O.O.O.O.O.O.O.O.O.O.O.O.O.O.O.O.O.O.Z t ~ O.( w P O.O.S y | O.O.O.O.O.O.O.O.O.O.",
"O.O.O.O.O.O.O.O.O.O.H t | O.O.J t [ O.O.O...~ } ....| | | ..| ..| | ..| | | | | | ~ w P O.O.d d O.O.J 8 J O.O.O.O.O.O.O.O.O.O.O.",
"O.O.O.O.O.O.O.O.O.O.| u S O.O.o.p l O.O.O.J 3 w y y y y y y t y y t y t t y y y t 0 g O.O.P w ( O.O.d 8 ^ O.O.O.O.O.O.O.O.O.O.O.",
"O.O.O.O.O.O.O.O.O.O.O.K t [ O.O.I w ^ O.O.^ d G U U I U U U I U U U U U U U U U U U } O.| i Z O.O.O.[ ~ O.O.O.O.O.O.O.O.O.O.O.O.",
"O.O.O.O.O.O.O.O.O.O.O.o.p B O.O.O.g d O.O.O.O.O.O.O.O.O.O.O.O.O.O.O.O.O.O.O.O.O.O.O.O.O.D y } O.O.O.O.O.O.O.O.O.O.O.O.O.O.O.O.O.",
"O.O.O.O.O.O.O.O.O.O.O.O.P w ) O.O.( w G ^ ~ ^ ~ ~ ~ ~ ~ ~ ~ ~ ~ ~ ~ ~ ~ ~ ~ ~ ~ ~ ~ ~ L w J O.O.O.O.O.O.O.O.O.O.O.O.O.O.O.O.O.O.",
"O.O.O.O.O.O.O.O.O.O.O.O.O.s j O.O.O.A r t t t t y t y t t t t t t t t t t t t t t t t t g o.O.O.O.O.O.O.O.O.O.O.O.O.O.O.O.O.O.O.",
"O.O.O.O.O.O.O.O.O.O.O.O.O.U 9 A O.O.o.| } | } | | | | } | | | | | | | } | | | } | | } | o.O.O.O.O.O.O.O.O.O.O.O.O.O.O.O.O.O.O.O.",
"O.O.O.O.O.O.O.O.O.O.O.O.O.[ 0 i o.O.O.O.O.O.O.O.O.O.O.O.O.O.O.O.O.O.O.O.O.O.O.O.O.O.O.O.O.O.O.O.O.O.O.O.O.O.O.O.O.O.O.O.O.O.O.O.",
"O.O.O.O.O.O.O.O.O.O.O.O.O.O./ ) O.O.O.O.O.O.O.O.O.U l I ~ ~ ~ ~ ~ ~ ~ ~ ~ ~ ~ ~ ~ ~ ~ U l K O.O.O.O.O.O.O.O.O.O.O.O.O.O.O.O.O.O.",
"O.O.O.O.O.O.O.O.O.O.O.O.O.O.O.O.O.O.O.O.O.O.O.O.O.g ; r t t y t y t t t t t t t t t t r 3 p O.O.O.O.O.O.O.O.O.O.O.O.O.O.O.O.O.O.",
"+.O.O.O.O.O.O.O.O.O.O.O.O.O.O.O.O.O.O.O.O.O.O.O.O._ P } | } | | | | | | } | | | | | | } P ( O.O.O.O.O.O.O.O.O.O.O.O.O.O.O.O.O.O.",
"+.O.O.O.O.O.O.O.O.O.O.O.O.O.O.O.O.O.O.O.O.O.O.O.O.O.O.O.O.O.O.O.O.O.O.O.O.O.O.O.O.O.O.O.O.O.O.O.O.O.O.O.O.O.O.O.O.O.O.O.O.O.O.+.",
"+.O.O.O.O.O.O.O.O.O.O.O.O.O.O.O.O.O.O.O.O.O.O.O.O.O.O.O.O.O.O.O.O.O.O.O.O.O.O.O.O.O.O.O.O.O.O.O.O.O.O.O.O.O.O.O.O.O.O.O.O.O.O.+.",
"+.+.O.O.O.O.O.O.O.O.O.O.O.O.O.O.O.O.O.O.O.O.O.O.O.O.O.O.O.O.O.O.O.O.O.O.O.O.O.O.O.O.O.O.O.O.O.O.O.O.O.O.O.O.O.O.O.O.O.O.O.O.+.+.",
"+.+.+.O.O.O.O.O.O.O.O.O.O.O.O.O.O.O.O.O.O.O.O.O.O.O.O.O.O.O.O.O.O.O.O.O.O.O.O.O.O.O.O.O.O.O.O.O.O.O.O.O.O.O.O.O.O.O.O.O.O.+.+.+.",
"+.+.+.+.O.O.O.O.O.O.O.O.O.O.O.O.O.O.O.O.O.O.O.O.O.O.O.O.O.O.O.O.O.O.O.O.O.O.O.O.O.O.O.O.O.O.O.O.O.O.O.O.O.O.O.O.O.O.O.O.+.+.+.+.",
"+.+.+.+.+.O.O.O.O.O.O.O.O.O.O.O.O.O.O.O.O.O.O.O.O.O.O.O.O.O.O.O.O.O.O.O.O.O.O.O.O.O.O.O.O.O.O.O.O.O.O.O.O.O.O.O.O.O.O.+.+.+.+.+.",
"+.+.+.+.+.+.+.+.O.O.O.O.O.O.O.O.O.O.O.O.O.O.O.O.O.O.O.O.O.O.O.O.O.O.O.O.O.O.O.O.O.O.O.O.O.O.O.O.O.O.O.O.O.O.O.O.O.+.+.+.+.+.+.+."
};
