/* XPM */
static char *cpay16[] = {
/* columns rows colors chars-per-pixel */
"16 16 103 2 ",
"   c #2C6BAC",
".  c #2D6EAE",
"X  c #2470B2",
"o  c #5E548F",
"O  c #585591",
"+  c #51619D",
"@  c #4B7DB5",
"#  c #007BC2",
"$  c #007BC3",
"%  c #007CC3",
"&  c #017CC3",
"*  c #027DC3",
"=  c #037DC4",
"-  c #047DC4",
";  c #047EC4",
":  c #057EC4",
">  c #067FC4",
",  c #077FC4",
"<  c #4981B9",
"1  c #5D83B6",
"2  c #5785BA",
"3  c #588ABE",
"4  c #0A80C5",
"5  c #0B81C5",
"6  c #0E83C6",
"7  c #0281C8",
"8  c #1184C7",
"9  c #1385C7",
"0  c #1787C8",
"q  c #1888C9",
"w  c #1A89C9",
"e  c #1B8AC9",
"r  c #1E8BCA",
"t  c #1F8CCA",
"y  c #218DCB",
"u  c #228ECB",
"i  c #248ECB",
"p  c #258ECB",
"a  c #258FCC",
"s  c #268FCC",
"d  c #2690CC",
"f  c #2990CC",
"g  c #2991CC",
"h  c #2991CD",
"j  c #2A92CD",
"k  c #2C93CD",
"l  c #2D93CD",
"z  c #2D93CE",
"x  c #2D95CF",
"c  c #2E94CE",
"v  c #2F94CE",
"b  c #3095CE",
"n  c #3296CF",
"m  c #3496CF",
"M  c #3497CF",
"N  c #3597CF",
"B  c #3697D0",
"V  c #3798D0",
"C  c #3A99D0",
"Z  c #3B9AD1",
"A  c #3C9BD1",
"S  c #3D9BD1",
"D  c #3B9CD2",
"F  c #3D9CD1",
"G  c #3D9DD3",
"H  c #3E9CD2",
"J  c #3F9CD2",
"K  c #568CC0",
"L  c #439DD1",
"P  c #409CD2",
"I  c #409DD2",
"U  c #419DD2",
"Y  c #419ED2",
"T  c #429ED3",
"R  c #439ED3",
"E  c #449FD3",
"W  c #459FD3",
"Q  c #45A0D3",
"!  c #46A0D3",
"~  c #46A0D4",
"^  c #47A0D4",
"/  c #47A1D4",
"(  c #46A2D5",
")  c #47A2D5",
"_  c #48A1D4",
"`  c #49A1D4",
"'  c #48A3D5",
"]  c #4AA2D4",
"[  c #4AA2D5",
"{  c #4BA2D5",
"}  c #4BA3D5",
"|  c #4CA3D5",
" . c #4FA4D6",
".. c #4FA5D6",
"X. c #53A6D6",
"o. c #55A8D7",
"O. c #56A8D7",
"+. c #57A8D7",
"@. c #58A9D8",
"#. c #5AAAD8",
"$. c #5FADD9",
"%. c #63AFDA",
"&. c None",
/* pixels */
"&.& & & & & $ & & $ $ & & & = &.",
"& & $ & & $ $ $ $ $ $ & & $ & & ",
"& & & $ > a d h 9 e u = & & $ & ",
"& $ & r B ] / ] J T ] u $ $ & & ",
"& $ 8 W ] N e / / / | T 5 & & $ ",
"& & N / ] J C 3 K ] T ] T l $ & ",
"$ e / S W D < o . O. ./ O. .n = ",
"& N N h J x +   7 X.%.%.$.#.V & ",
"$ r a d / / @ O X ] l O.#.| e $ ",
"& > B J ] / T 1 2 x i a W x - $ ",
"& $ e J J d Q / J x S C Q 6 $ $ ",
"& & = B J V ] Q / T ] N u $ $ & ",
"& & $ e N l S ] / Q T 5 $ & $ & ",
"& $ $ $ - $ 0 a i i i > $ & & & ",
"& & & $ $ & $ $ $ $ $ $ & & $ & ",
"&.& & & & & & & & & & & & & & &."
};
